<?xml version="1.0" encoding="UTF-8" standalone="no"?>
<!DOCTYPE svg PUBLIC "-//W3C//DTD SVG 1.1//EN" "http://www.w3.org/Graphics/SVG/1.1/DTD/svg11.dtd">
<svg version="1.1" xmlns="http://www.w3.org/2000/svg" xmlns:xlink="http://www.w3.org/1999/xlink" preserveAspectRatio="xMidYMid meet" viewBox="0 0 640 640" width="640" height="640"><defs><path d="M535.88 35.54C558.8 35.54 577.38 54.12 577.38 77.05C577.38 99.97 558.8 118.55 535.88 118.55C512.96 118.55 494.37 99.97 494.37 77.05C494.37 54.12 512.96 35.54 535.88 35.54Z" id="ahCUaVhI1"></path><path d="M127.14 391.41C150.06 391.41 168.65 409.99 168.65 432.91C168.65 455.84 150.06 474.42 127.14 474.42C104.22 474.42 85.64 455.84 85.64 432.91C85.64 409.99 104.22 391.41 127.14 391.41Z" id="aUT6CYFKw"></path><path d="M387.44 47.7C403.65 47.7 416.79 60.84 416.79 77.05C416.79 93.25 403.65 106.39 387.44 106.39C371.23 106.39 358.09 93.25 358.09 77.05C358.09 60.84 371.23 47.7 387.44 47.7Z" id="c2Mza2smhJ"></path><path d="M301.07 47.7C317.28 47.7 330.42 60.84 330.42 77.05C330.42 93.25 317.28 106.39 301.07 106.39C284.86 106.39 271.72 93.25 271.72 77.05C271.72 60.84 284.86 47.7 301.07 47.7Z" id="as820uHMb"></path><path d="M387.44 225.64C403.65 225.64 416.79 238.77 416.79 254.98C416.79 271.19 403.65 284.33 387.44 284.33C371.23 284.33 358.09 271.19 358.09 254.98C358.09 238.77 371.23 225.64 387.44 225.64Z" id="c1LZ2n1rdI"></path><path d="M301.07 225.64C317.28 225.64 330.42 238.77 330.42 254.98C330.42 271.19 317.28 284.33 301.07 284.33C284.86 284.33 271.72 271.19 271.72 254.98C271.72 238.77 284.86 225.64 301.07 225.64Z" id="dAgm6cqdk"></path><path d="M387.44 403.42C403.65 403.42 416.79 416.55 416.79 432.76C416.79 448.97 403.65 462.11 387.44 462.11C371.23 462.11 358.09 448.97 358.09 432.76C358.09 416.55 371.23 403.42 387.44 403.42Z" id="c1CnUpPBym"></path><path d="M301.07 403.42C317.28 403.42 330.42 416.55 330.42 432.76C330.42 448.97 317.28 462.11 301.07 462.11C284.86 462.11 271.72 448.97 271.72 432.76C271.72 416.55 284.86 403.42 301.07 403.42Z" id="a59u0Xl0u"></path><path d="M485.27 87.33C479.3 87.33 431.51 87.33 425.53 87.33C420.97 104.35 405.06 116.52 387.44 116.52C369.83 116.52 353.91 104.35 349.35 87.33C348.33 87.33 340.18 87.33 339.16 87.33C334.6 104.35 318.69 116.52 301.07 116.52C283.46 116.52 267.54 104.35 262.98 87.33C258.28 87.33 220.72 87.33 216.03 87.33C185.87 87.33 158.81 104.13 145.41 131.17C139.69 142.7 121.5 133.81 127.26 122.18C144.11 88.19 178.12 67.08 216.03 67.08C220.72 67.08 258.21 67.08 262.89 67.08C267.34 49.93 283.35 37.57 301.07 37.57C318.8 37.57 334.79 49.9 339.25 67.08C340.25 67.08 348.26 67.08 349.26 67.08C353.71 49.93 369.72 37.57 387.44 37.57C405.17 37.57 421.16 49.9 425.62 67.08C431.58 67.08 479.25 67.08 485.21 67.08C489.86 43.14 511.53 25.41 535.88 25.41C563.99 25.41 587.51 48.93 587.51 77.05C587.51 105.16 564 128.68 535.88 128.68C522.09 128.68 509.12 123.31 499.37 113.56C492.09 106.27 487.25 97.2 485.27 87.33ZM301.07 57.83C296.15 57.83 291.23 59.71 287.48 63.45C279.99 70.95 279.99 83.14 287.48 90.64C291.11 94.27 295.94 96.27 301.07 96.27C306.21 96.27 311.03 94.27 314.66 90.64C322.16 83.14 322.16 70.95 314.66 63.45C310.92 59.71 305.99 57.83 301.07 57.83ZM387.44 57.83C382.52 57.83 377.6 59.71 373.85 63.45C366.36 70.95 366.36 83.14 373.85 90.64C377.48 94.27 382.31 96.27 387.44 96.27C392.58 96.27 397.4 94.27 401.03 90.64C408.53 83.14 408.53 70.95 401.03 63.45C397.29 59.71 392.36 57.83 387.44 57.83ZM558.07 54.86C552.14 48.93 544.26 45.67 535.88 45.67C527.5 45.67 519.62 48.93 513.69 54.86C507.76 60.78 504.5 68.66 504.5 77.05C504.5 85.43 507.77 93.31 513.69 99.23C519.62 105.16 527.5 108.42 535.88 108.42C544.26 108.42 552.14 105.16 558.07 99.23C563.99 93.31 567.26 85.43 567.26 77.05C567.26 68.66 563.99 60.78 558.07 54.86Z" id="c9wd0B5rz"></path><path d="M127.14 381.28C151.37 381.28 172.97 398.85 177.75 422.64C186.27 422.64 254.42 422.64 262.94 422.64C267.45 405.53 283.37 393.29 301.07 393.29C318.75 393.29 334.7 405.54 339.21 422.64C340.22 422.64 348.3 422.64 349.31 422.64C353.82 405.53 369.74 393.29 387.44 393.29C405.12 393.29 421.07 405.54 425.58 422.64C427.72 422.64 444.85 422.64 446.99 422.64C490.42 422.64 525.75 387.3 525.75 343.87C525.75 300.44 490.42 265.11 446.99 265.11C444.85 265.11 427.72 265.11 425.58 265.11C421.07 282.21 405.12 294.46 387.44 294.46C369.77 294.46 353.82 282.21 349.31 265.11C348.3 265.11 340.22 265.11 339.21 265.11C334.7 282.2 318.75 294.46 301.07 294.46C283.4 294.46 267.45 282.21 262.94 265.11C258.25 265.11 220.72 265.11 216.03 265.11C179.5 265.11 146.06 245.1 128.75 212.89C122.6 201.44 140.43 191.84 146.59 203.31C160.36 228.94 186.97 244.86 216.03 244.86C220.72 244.86 258.25 244.86 262.94 244.86C267.45 227.76 283.4 215.51 301.07 215.51C318.75 215.51 334.7 227.76 339.21 244.86C340.22 244.86 348.3 244.86 349.31 244.86C353.82 227.76 369.77 215.51 387.44 215.51C405.12 215.51 421.07 227.76 425.58 244.86C427.72 244.86 444.85 244.86 446.99 244.86C501.59 244.86 546.01 289.28 546.01 343.87C546.01 398.47 501.59 442.89 446.99 442.89C444.85 442.89 427.72 442.89 425.58 442.89C421.07 459.98 405.12 472.22 387.44 472.22C369.77 472.22 353.82 459.99 349.31 442.89C348.3 442.89 340.22 442.89 339.21 442.89C334.7 459.98 318.75 472.22 301.07 472.22C283.4 472.22 267.45 459.99 262.94 442.89C254.43 442.89 186.32 442.89 177.81 442.89C173.15 466.82 151.48 484.55 127.14 484.55C99.03 484.55 75.51 461.03 75.51 432.92C75.51 419.12 80.88 406.16 90.63 396.4C100.38 386.65 113.35 381.28 127.14 381.28ZM301.07 235.76C295.94 235.76 291.11 237.76 287.48 241.39C279.99 248.89 279.99 261.08 287.48 268.58C294.97 276.07 307.17 276.07 314.66 268.58C322.16 261.08 322.16 248.89 314.66 241.39C311.03 237.76 306.21 235.76 301.07 235.76ZM387.44 235.76C382.31 235.76 377.48 237.76 373.85 241.39C366.36 248.89 366.36 261.08 373.85 268.58C381.34 276.07 393.54 276.07 401.03 268.58C408.53 261.08 408.53 248.89 401.03 241.39C397.4 237.76 392.58 235.76 387.44 235.76ZM387.44 451.99C392.58 451.99 397.4 449.99 401.03 446.36C408.53 438.86 408.53 426.67 401.03 419.17C397.4 415.54 392.58 413.54 387.44 413.54C382.31 413.54 377.48 415.54 373.85 419.17C366.36 426.67 366.36 438.86 373.85 446.36C377.48 449.99 382.31 451.99 387.44 451.99ZM301.07 451.99C306.21 451.99 311.03 449.99 314.66 446.36C322.16 438.86 322.16 426.67 314.66 419.17C311.03 415.54 306.21 413.54 301.07 413.54C295.94 413.54 291.11 415.54 287.48 419.17C279.99 426.67 279.99 438.86 287.48 446.36C291.11 449.99 295.94 451.99 301.07 451.99ZM127.14 464.29C135.52 464.29 143.4 461.03 149.33 455.1C155.26 449.17 158.52 441.29 158.52 432.91C158.52 424.53 155.26 416.65 149.33 410.73C143.4 404.8 135.52 401.54 127.14 401.54C118.76 401.54 110.88 404.8 104.95 410.73C99.03 416.65 95.76 424.53 95.76 432.91C95.76 441.29 99.03 449.18 104.95 455.1C110.88 461.03 118.76 464.29 127.14 464.29Z" id="a13fzXav6W"></path><path d="M141.24 164.96C142.32 170.39 138.7 175.78 133.29 176.87C127.87 177.97 122.48 174.32 121.39 168.92C120.29 163.5 123.95 158.11 129.34 157.01C134.74 155.93 140.16 159.57 141.24 164.96Z" id="b1NxlW3WEz"></path></defs><g><g><g><use xlink:href="#ahCUaVhI1" opacity="1" fill="#ff7d97" fill-opacity="1"></use><g><use xlink:href="#ahCUaVhI1" opacity="1" fill-opacity="0" stroke="#000000" stroke-width="1" stroke-opacity="0"></use></g></g><g><use xlink:href="#aUT6CYFKw" opacity="1" fill="#99ebfa" fill-opacity="1"></use><g><use xlink:href="#aUT6CYFKw" opacity="1" fill-opacity="0" stroke="#000000" stroke-width="1" stroke-opacity="0"></use></g></g><g><use xlink:href="#c2Mza2smhJ" opacity="1" fill="#ffee80" fill-opacity="1"></use><g><use xlink:href="#c2Mza2smhJ" opacity="1" fill-opacity="0" stroke="#000000" stroke-width="1" stroke-opacity="0"></use></g></g><g><use xlink:href="#as820uHMb" opacity="1" fill="#e7e9ef" fill-opacity="1"></use><g><use xlink:href="#as820uHMb" opacity="1" fill-opacity="0" stroke="#000000" stroke-width="1" stroke-opacity="0"></use></g></g><g><use xlink:href="#c1LZ2n1rdI" opacity="1" fill="#a0e5a5" fill-opacity="1"></use><g><use xlink:href="#c1LZ2n1rdI" opacity="1" fill-opacity="0" stroke="#000000" stroke-width="1" stroke-opacity="0"></use></g></g><g><use xlink:href="#dAgm6cqdk" opacity="1" fill="#ffee80" fill-opacity="1"></use><g><use xlink:href="#dAgm6cqdk" opacity="1" fill-opacity="0" stroke="#000000" stroke-width="1" stroke-opacity="0"></use></g></g><g><use xlink:href="#c1CnUpPBym" opacity="1" fill="#e7e9ef" fill-opacity="1"></use><g><use xlink:href="#c1CnUpPBym" opacity="1" fill-opacity="0" stroke="#000000" stroke-width="1" stroke-opacity="0"></use></g></g><g><use xlink:href="#a59u0Xl0u" opacity="1" fill="#a0e5a5" fill-opacity="1"></use><g><use xlink:href="#a59u0Xl0u" opacity="1" fill-opacity="0" stroke="#000000" stroke-width="1" stroke-opacity="0"></use></g></g><g><use xlink:href="#c9wd0B5rz" opacity="1" fill="#000000" fill-opacity="1"></use><g><use xlink:href="#c9wd0B5rz" opacity="1" fill-opacity="0" stroke="#000000" stroke-width="1" stroke-opacity="0"></use></g></g><g><use xlink:href="#a13fzXav6W" opacity="1" fill="#000000" fill-opacity="1"></use><g><use xlink:href="#a13fzXav6W" opacity="1" fill-opacity="0" stroke="#000000" stroke-width="1" stroke-opacity="0"></use></g></g><g><use xlink:href="#b1NxlW3WEz" opacity="1" fill="#000000" fill-opacity="1"></use><g><use xlink:href="#b1NxlW3WEz" opacity="1" fill-opacity="0" stroke="#000000" stroke-width="1" stroke-opacity="0"></use></g></g></g></g></svg>